<svg fill="none" height="24" viewBox="0 0 24 24" width="24" xmlns="http://www.w3.org/2000/svg"><g clip-rule="evenodd" fill="#47495f" fill-rule="evenodd"><path d="m3.5 4c0-.27614.22386-.5.5-.5h3c.27614 0 .5.22386.5.5s-.22386.5-.5.5h-2.5v2.5c0 .27614-.22386.5-.5.5s-.5-.22386-.5-.5z"/><path d="m20 3.5c.2761 0 .5.22386.5.5v3c0 .27614-.2239.5-.5.5s-.5-.22386-.5-.5v-2.5h-2.5c-.2761 0-.5-.22386-.5-.5s.2239-.5.5-.5z"/><path d="m4 20.5c-.27614 0-.5-.2239-.5-.5v-3c0-.2761.22386-.5.5-.5s.5.2239.5.5v2.5h2.5c.27614 0 .5.2239.5.5s-.22386.5-.5.5z"/><path d="m20.5 20c0 .2761-.2239.5-.5.5h-3c-.2761 0-.5-.2239-.5-.5s.2239-.5.5-.5h2.5v-2.5c0-.2761.2239-.5.5-.5s.5.2239.5.5z"/><path d="m12 9c-2.71293 0-4.7198 1.7931-5.4 2.7-.13333.1778-.13333.4222 0 .6.6802.9069 2.68707 2.7 5.4 2.7 2.7129 0 4.7198-1.7931 5.4-2.7.1333-.1778.1333-.4222 0-.6-.6802-.9069-2.6871-2.7-5.4-2.7zm-1.8744 4.6543c-1.1163-.4147-1.98284-1.1208-2.47383-1.6543.49099-.5335 1.35753-1.2396 2.47383-1.6543-.38934.4408-.6256 1.02-.6256 1.6543s.23626 1.2135.6256 1.6543zm3.7488 0c1.1163-.4147 1.9828-1.1208 2.4738-1.6543-.491-.5335-1.3575-1.2396-2.4738-1.6543.3893.4408.6256 1.02.6256 1.6543s-.2363 1.2135-.6256 1.6543zm-3.3744-1.6543c0-.8284.6716-1.5 1.5-1.5s1.5.6716 1.5 1.5-.6716 1.5-1.5 1.5-1.5-.6716-1.5-1.5z"/></g></svg>