<svg fill="none" height="24" viewBox="0 0 24 24" width="24" xmlns="http://www.w3.org/2000/svg"><path clip-rule="evenodd" d="m3.5 6c0 1.38071 1.11929 2.5 2.5 2.5.38376 0 .74732-.08647 1.07226-.24098.01113.01833.02357.03615.03732.05335l1.87669 2.34583c-.91265.8236-1.48627 2.0157-1.48627 3.3418 0 1.5828.81709 2.9746 2.05245 3.7768-.03356.0672-.05245.143-.05245.2232v1c0 .8284.6716 1.5 1.5 1.5h2c.8284 0 1.5-.6716 1.5-1.5v-1c0-.0802-.0189-.156-.0524-.2232 1.2353-.8022 2.0524-2.194 2.0524-3.7768 0-1.3261-.5736-2.5182-1.4863-3.3418l1.8767-2.34583c.0138-.0172.0262-.03502.0373-.05335.325.15452.6885.24098 1.0723.24098 1.3807 0 2.5-1.11929 2.5-2.5s-1.1193-2.5-2.5-2.5-2.5 1.11929-2.5 2.5c0 .63781.2388 1.21984.632 1.66152-.0077.0084-.0152.01712-.0224.02615l-1.909 2.38623c-.5131-.28819-1.0883-.47871-1.7006-.5464v-1.07751c1.1411-.23163 2-1.24051 2-2.44999 0-1.38071-1.1193-2.5-2.5-2.5s-2.5 1.11929-2.5 2.5c0 1.20948.8589 2.21836 2 2.44999v1.07751c-.6123.06769-1.1875.25821-1.70058.5464l-1.90897-2.38623c-.00723-.00904-.01471-.01776-.02242-.02616.39312-.44168.63197-1.0237.63197-1.66151 0-1.38071-1.11929-2.5-2.5-2.5s-2.5 1.11929-2.5 2.5zm2.5 1.5c-.82843 0-1.5-.67157-1.5-1.5s.67157-1.5 1.5-1.5 1.5.67157 1.5 1.5-.67157 1.5-1.5 1.5zm12 0c-.8284 0-1.5-.67157-1.5-1.5s.6716-1.5 1.5-1.5 1.5.67157 1.5 1.5-.6716 1.5-1.5 1.5zm-7.5-1.5c0 .82843.6716 1.5 1.5 1.5s1.5-.67157 1.5-1.5-.6716-1.5-1.5-1.5-1.5.67157-1.5 1.5zm0 13v-.756c.4692.1658.974.256 1.5.256s1.0308-.0902 1.5-.256v.756c0 .2761-.2239.5-.5.5h-2c-.2761 0-.5-.2239-.5-.5zm-2-5c0 1.933 1.567 3.5 3.5 3.5s3.5-1.567 3.5-3.5-1.567-3.5-3.5-3.5-3.5 1.567-3.5 3.5z" fill="#47495f" fill-rule="evenodd"/></svg>